<?xml version="1.0" encoding="UTF-8"?>
<svg width="600" height="400" viewBox="0 0 600 400" fill="none" xmlns="http://www.w3.org/2000/svg">
  <g clip-path="url(#clip0_1_2)">
    <!-- Background elements -->
    <rect width="600" height="400" fill="#F8F9FA"/>
    <circle cx="500" cy="100" r="80" fill="#E2E6EA"/>
    <circle cx="100" cy="350" r="60" fill="#E2E6EA"/>
    
    <!-- Person with briefcase -->
    <g transform="translate(250, 180)">
      <!-- Head -->
      <circle cx="0" cy="-60" r="30" fill="#FFD7B5"/>
      <!-- Body -->
      <rect x="-25" y="-30" width="50" height="90" rx="10" fill="#4F88FF"/>
      
      <!-- Arms -->
      <rect x="-60" y="-20" width="35" height="12" rx="6" fill="#FFD7B5"/>
      <rect x="25" y="-20" width="35" height="12" rx="6" fill="#FFD7B5"/>
      
      <!-- Legs -->
      <rect x="-20" y="60" width="12" height="40" rx="6" fill="#496080"/>
      <rect x="8" y="60" width="12" height="40" rx="6" fill="#496080"/>
      
      <!-- Briefcase -->
      <rect x="-30" y="10" width="60" height="45" rx="5" fill="#C06030"/>
      <rect x="-10" y="0" width="20" height="10" fill="#C06030"/>
    </g>
    
    <!-- Buildings in background -->
    <g transform="translate(400, 200)">
      <rect x="-40" y="-80" width="30" height="120" fill="#99A4B0"/>
      <rect x="-35" y="-75" width="20" height="10" fill="#D6DEE8"/>
      <rect x="-35" y="-60" width="20" height="10" fill="#D6DEE8"/>
      <rect x="-35" y="-45" width="20" height="10" fill="#D6DEE8"/>
      <rect x="-35" y="-30" width="20" height="10" fill="#D6DEE8"/>
      
      <rect x="0" y="-100" width="40" height="140" fill="#8894A3"/>
      <rect x="5" y="-95" width="30" height="10" fill="#D6DEE8"/>
      <rect x="5" y="-80" width="30" height="10" fill="#D6DEE8"/>
      <rect x="5" y="-65" width="30" height="10" fill="#D6DEE8"/>
      <rect x="5" y="-50" width="30" height="10" fill="#D6DEE8"/>
      <rect x="5" y="-35" width="30" height="10" fill="#D6DEE8"/>
    </g>
    
    <!-- Document icons -->
    <g transform="translate(150, 150)">
      <rect x="-30" y="-20" width="60" height="80" rx="3" fill="white" stroke="#DFE3E8" stroke-width="2"/>
      <line x1="-15" y1="0" x2="15" y2="0" stroke="#DFE3E8" stroke-width="3"/>
      <line x1="-15" y1="15" x2="5" y2="15" stroke="#DFE3E8" stroke-width="3"/>
      <line x1="-15" y1="-15" x2="25" y2="-15" stroke="#DFE3E8" stroke-width="3"/>
    </g>
    
    <g transform="translate(120, 220)">
      <rect x="-25" y="-20" width="50" height="70" rx="3" fill="white" stroke="#DFE3E8" stroke-width="2"/>
      <line x1="-15" y1="0" x2="15" y2="0" stroke="#DFE3E8" stroke-width="3"/>
      <line x1="-15" y1="15" x2="5" y2="15" stroke="#DFE3E8" stroke-width="3"/>
      <line x1="-15" y1="-15" x2="25" y2="-15" stroke="#DFE3E8" stroke-width="3"/>
    </g>
    
    <!-- Search magnifying glass -->
    <g transform="translate(480, 280)">
      <circle cx="0" cy="0" r="25" fill="white" stroke="#3F7BFD" stroke-width="5"/>
      <line x1="18" y1="18" x2="40" y2="40" stroke="#3F7BFD" stroke-width="5" stroke-linecap="round"/>
    </g>
  </g>
  <defs>
    <clipPath id="clip0_1_2">
      <rect width="600" height="400" fill="white"/>
    </clipPath>
  </defs>
</svg>
